%
M48
M72
T01C0.0236
T02C0.0315
T03C0.0354
T04C0.0390
T05C0.0394
T06C0.0400
T07C0.0512
T08C0.0709
T09C0.0866
T10C0.1575
%
T01
X6046Y5377
X8192Y5042
X11774Y2609
X12621Y5042
X17604Y3096
X19708Y5436
X18566Y5652
X19058Y7326
X21479Y6164
X24235Y5495
X24235Y8290
X22696Y8286
X21538Y9038
X22227Y9235
X21145Y9629
X23723Y12070
X22070Y12542
X19570Y12188
X19255Y12897
X17168Y14196
X19383Y14885
X17865Y16845
X22168Y14865
X23664Y15141
X25150Y15111
X25269Y13753
X28404Y13877
X28389Y13034
X33015Y11479
X33684Y10613
X28428Y16912
X27641Y16853
X26952Y17739
X26046Y19314
X26026Y21814
X29019Y22129
X33015Y19432
X33251Y20298
X27641Y25711
X28428Y26952
X29019Y27837
X26952Y28428
X21814Y22030
X21145Y22129
X21814Y20711
X22365Y19393
X17601Y22129
X17385Y23763
X17385Y26046
X1519Y13802
X2975Y11558
X5141Y13408
X7897Y13015
X8706Y9375
X6715Y9353
X4149Y6786
X14944Y13487
T02
X35219Y14353
X35219Y15353
X35219Y22227
X35219Y23227
X29208Y30617
X28322Y30617
X27337Y30617
X26452Y30617
X35219Y7479
X35219Y6479
T03
X22467Y1956
T04
X23133Y30820
X21361Y30820
T05
X23078Y23227
X23078Y22227
X23078Y21227
X30078Y21227
X30078Y22227
X30078Y23227
X29692Y17833
X30692Y17833
X31692Y17833
X31692Y10833
X30692Y10833
X29692Y10833
X29358Y8546
X30358Y8546
X31358Y8546
X23467Y1956
X21467Y1956
X20467Y1956
X29358Y1546
X30358Y1546
X31358Y1546
T06
X17722Y6645
X16722Y6645
X15722Y6645
X15722Y7645
X16722Y7645
X17722Y7645
X13168Y13845
X13268Y14845
X13168Y15845
X13268Y16845
X13168Y17845
X13268Y18845
T07
X15133Y20849
X15133Y23802
X15133Y27306
X15133Y30259
X20867Y29839
X23627Y29839
X9192Y30259
X7208Y30259
X5223Y30259
X2589Y27444
X5223Y27306
X7208Y27306
X9192Y27306
X9192Y23802
X7208Y23802
X5223Y23802
X2589Y23507
X2589Y25475
X5223Y20849
X7208Y20849
X9192Y20849
T08
X16274Y3066
X16274Y1507
T09
X37219Y4479
X37219Y8479
X37219Y12353
X37219Y16353
X37219Y20227
X37219Y24227
T10
X1755Y1755
X37975Y1755
X37975Y30101
X1755Y30101
M30
