G75*
G70*
%OFA0B0*%
%FSLAX24Y24*%
%IPPOS*%
%LPD*%
%AMOC8*
5,1,8,0,0,1.08239X$1,22.5*
%
%ADD10C,0.1655*%
%ADD11R,0.0671X0.0198*%
%ADD12R,0.0198X0.0671*%
%ADD13OC8,0.0820*%
%ADD14R,0.0513X0.0474*%
%ADD15R,0.0474X0.0513*%
%ADD16C,0.1080*%
%ADD17C,0.0780*%
%ADD18R,0.0552X0.0297*%
%ADD19R,0.0631X0.0710*%
%ADD20C,0.0820*%
%ADD21C,0.0635*%
%ADD22C,0.1346*%
%ADD23R,0.0635X0.0635*%
%ADD24C,0.0480*%
%ADD25OC8,0.1143*%
%ADD26OC8,0.0840*%
%ADD27OC8,0.1080*%
%ADD28OC8,0.0848*%
%ADD29C,0.0840*%
%ADD30R,0.0671X0.0513*%
%ADD31R,0.0631X0.0474*%
%ADD32R,0.0380X0.0680*%
%ADD33R,0.0592X0.0513*%
%ADD34R,0.0946X0.0415*%
%ADD35R,0.0493X0.0474*%
%ADD36R,0.0516X0.0516*%
D10*
X001755Y001755D03*
X037975Y001755D03*
X037975Y030101D03*
X001755Y030101D03*
D11*
X020530Y016042D03*
X020530Y015845D03*
X020530Y015649D03*
X020530Y015452D03*
X020530Y015255D03*
X020530Y015058D03*
X020530Y014861D03*
X020530Y014664D03*
X020530Y014467D03*
X020530Y014271D03*
X020530Y014074D03*
X020530Y013877D03*
X020530Y013680D03*
X020530Y013483D03*
X020530Y013286D03*
X020530Y013089D03*
X020530Y012893D03*
X020530Y012696D03*
X020530Y012499D03*
X020530Y012302D03*
X020530Y012105D03*
X020530Y011908D03*
X020530Y011711D03*
X020530Y011515D03*
X020530Y011318D03*
X026830Y011318D03*
X026830Y011515D03*
X026830Y011711D03*
X026830Y011908D03*
X026830Y012105D03*
X026830Y012302D03*
X026830Y012499D03*
X026830Y012696D03*
X026830Y012893D03*
X026830Y013089D03*
X026830Y013286D03*
X026830Y013483D03*
X026830Y013680D03*
X026830Y013877D03*
X026830Y014074D03*
X026830Y014271D03*
X026830Y014467D03*
X026830Y014664D03*
X026830Y014861D03*
X026830Y015058D03*
X026830Y015255D03*
X026830Y015452D03*
X026830Y015649D03*
X026830Y015845D03*
X026830Y016042D03*
D12*
X026042Y016830D03*
X025845Y016830D03*
X025649Y016830D03*
X025452Y016830D03*
X025255Y016830D03*
X025058Y016830D03*
X024861Y016830D03*
X024664Y016830D03*
X024467Y016830D03*
X024271Y016830D03*
X024074Y016830D03*
X023877Y016830D03*
X023680Y016830D03*
X023483Y016830D03*
X023286Y016830D03*
X023089Y016830D03*
X022893Y016830D03*
X022696Y016830D03*
X022499Y016830D03*
X022302Y016830D03*
X022105Y016830D03*
X021908Y016830D03*
X021711Y016830D03*
X021515Y016830D03*
X021318Y016830D03*
X021318Y010530D03*
X021515Y010530D03*
X021711Y010530D03*
X021908Y010530D03*
X022105Y010530D03*
X022302Y010530D03*
X022499Y010530D03*
X022696Y010530D03*
X022893Y010530D03*
X023089Y010530D03*
X023286Y010530D03*
X023483Y010530D03*
X023680Y010530D03*
X023877Y010530D03*
X024074Y010530D03*
X024271Y010530D03*
X024467Y010530D03*
X024664Y010530D03*
X024861Y010530D03*
X025058Y010530D03*
X025255Y010530D03*
X025452Y010530D03*
X025649Y010530D03*
X025845Y010530D03*
X026042Y010530D03*
D13*
X017722Y007645D03*
X016722Y007645D03*
X015722Y007645D03*
X015722Y006645D03*
X016722Y006645D03*
X017722Y006645D03*
D14*
X012424Y001723D03*
X011755Y001723D03*
X004274Y011853D03*
X004274Y012523D03*
X001597Y012523D03*
X001597Y011853D03*
X001519Y014452D03*
X001519Y015121D03*
X014294Y014274D03*
X014963Y014274D03*
X017916Y014196D03*
X018586Y014196D03*
D15*
X016263Y014334D03*
X016263Y013664D03*
X020456Y017759D03*
X020456Y018428D03*
X021710Y018611D03*
X021710Y017942D03*
X025830Y018566D03*
X026499Y018566D03*
X028555Y028640D03*
X029224Y028640D03*
X018109Y029849D03*
X017440Y029849D03*
X006026Y017503D03*
X005357Y017503D03*
X005357Y016322D03*
X006026Y016322D03*
X006026Y015141D03*
X005357Y015141D03*
X006578Y013015D03*
X007247Y013015D03*
X013586Y005652D03*
X014255Y005652D03*
X014255Y004708D03*
X015003Y004708D03*
X015672Y004708D03*
X013586Y004708D03*
X019019Y006440D03*
X019688Y006440D03*
X021479Y004924D03*
X021479Y004255D03*
X025141Y005515D03*
X025141Y006184D03*
D16*
X023627Y029839D03*
X020867Y029839D03*
D17*
X021361Y030820D03*
X023133Y030820D03*
D18*
X004991Y002298D03*
X003967Y002298D03*
X003967Y001924D03*
X003967Y001550D03*
X004991Y001550D03*
D19*
X006235Y001786D03*
X007337Y001786D03*
X009235Y001786D03*
X010337Y001786D03*
D20*
X013168Y013845D03*
X013268Y014845D03*
X013168Y015845D03*
X013268Y016845D03*
X013168Y017845D03*
X013268Y018845D03*
D21*
X034942Y022227D02*
X035497Y022227D01*
X035497Y023227D02*
X034942Y023227D01*
X034942Y015353D02*
X035497Y015353D01*
X035497Y014353D02*
X034942Y014353D01*
X034942Y007479D02*
X035497Y007479D01*
X035497Y006479D02*
X034942Y006479D01*
D22*
X037219Y004479D03*
X037219Y008479D03*
X037219Y012353D03*
X037219Y016353D03*
X037219Y020227D03*
X037219Y024227D03*
D23*
X029208Y030617D03*
X028322Y030617D03*
X027337Y030617D03*
X026452Y030617D03*
D24*
X011036Y010886D02*
X011036Y010386D01*
X010536Y010386D02*
X010536Y010886D01*
X010036Y010886D02*
X010036Y010386D01*
X009536Y010386D02*
X009536Y010886D01*
X009036Y010886D02*
X009036Y010386D01*
X008536Y010386D02*
X008536Y010886D01*
X008036Y010886D02*
X008036Y010386D01*
X007536Y010386D02*
X007536Y010886D01*
X007036Y010886D02*
X007036Y010386D01*
X006536Y010386D02*
X006536Y010886D01*
X006036Y010886D02*
X006036Y010386D01*
X005536Y010386D02*
X005536Y010886D01*
X005036Y010886D02*
X005036Y010386D01*
X004536Y010386D02*
X004536Y010886D01*
X004036Y010886D02*
X004036Y010386D01*
X003536Y010386D02*
X003536Y010886D01*
X003036Y010886D02*
X003036Y010386D01*
X002536Y010386D02*
X002536Y010886D01*
X002036Y010886D02*
X002036Y010386D01*
X001536Y010386D02*
X001536Y010886D01*
X001436Y006786D02*
X000936Y006786D01*
X000936Y005286D02*
X001436Y005286D01*
X001536Y004186D02*
X001536Y003686D01*
X002036Y003686D02*
X002036Y004186D01*
X002536Y004186D02*
X002536Y003686D01*
X003036Y003686D02*
X003036Y004186D01*
X003536Y004186D02*
X003536Y003686D01*
X004036Y003686D02*
X004036Y004186D01*
X004536Y004186D02*
X004536Y003686D01*
X005036Y003686D02*
X005036Y004186D01*
X005536Y004186D02*
X005536Y003686D01*
X006036Y003686D02*
X006036Y004186D01*
X006536Y004186D02*
X006536Y003686D01*
X007036Y003686D02*
X007036Y004186D01*
X007536Y004186D02*
X007536Y003686D01*
X008036Y003686D02*
X008036Y004186D01*
X008536Y004186D02*
X008536Y003686D01*
X009036Y003686D02*
X009036Y004186D01*
X009536Y004186D02*
X009536Y003686D01*
X010036Y003686D02*
X010036Y004186D01*
X010536Y004186D02*
X010536Y003686D01*
X011036Y003686D02*
X011036Y004186D01*
X011136Y005786D02*
X011636Y005786D01*
X011636Y006286D02*
X011136Y006286D01*
X011136Y006786D02*
X011636Y006786D01*
X011636Y007286D02*
X011136Y007286D01*
X011136Y007786D02*
X011636Y007786D01*
X011636Y008286D02*
X011136Y008286D01*
X011136Y008786D02*
X011636Y008786D01*
D25*
X016274Y003066D03*
X016274Y001507D03*
D26*
X029358Y001546D03*
X030358Y001546D03*
X031358Y001546D03*
X031358Y008546D03*
X030358Y008546D03*
X029358Y008546D03*
X029692Y010833D03*
X030692Y010833D03*
X031692Y010833D03*
X031692Y017833D03*
X030692Y017833D03*
X029692Y017833D03*
X030078Y021227D03*
X030078Y022227D03*
X030078Y023227D03*
X023078Y023227D03*
X023078Y022227D03*
X023078Y021227D03*
D27*
X015133Y020849D03*
X015133Y023802D03*
X015133Y027306D03*
X015133Y030259D03*
X009192Y030259D03*
X007208Y030259D03*
X005223Y030259D03*
X005223Y027306D03*
X007208Y027306D03*
X009192Y027306D03*
X009192Y023802D03*
X007208Y023802D03*
X005223Y023802D03*
X005223Y020849D03*
X007208Y020849D03*
X009192Y020849D03*
D28*
X002589Y023507D03*
X002589Y025475D03*
X002589Y027444D03*
D29*
X020467Y001956D03*
X021467Y001956D03*
X022467Y001956D03*
X023467Y001956D03*
D30*
X008774Y015515D03*
X008774Y016223D03*
X008774Y016932D03*
X007200Y016932D03*
X007200Y016223D03*
X007200Y015515D03*
D31*
X003483Y013015D03*
X002617Y013389D03*
X002617Y012641D03*
D32*
X017292Y022957D03*
X017792Y022957D03*
X018292Y022957D03*
X018792Y022957D03*
X019292Y022957D03*
X019792Y022957D03*
X020292Y022957D03*
X020792Y022957D03*
X021292Y022957D03*
X021792Y022957D03*
X021792Y026707D03*
X021292Y026717D03*
X020792Y026717D03*
X020292Y026717D03*
X019792Y026717D03*
X019292Y026717D03*
X018792Y026717D03*
X018292Y026717D03*
X017792Y026717D03*
X017292Y026717D03*
D33*
X022483Y006243D03*
X023389Y006243D03*
X023389Y005534D03*
X022483Y005534D03*
D34*
X013251Y006725D03*
X013251Y007808D03*
D35*
X013851Y007267D03*
X012650Y007267D03*
D36*
X012621Y005042D03*
X011774Y002609D03*
X008192Y005042D03*
X006046Y005377D03*
X004149Y006786D03*
X006715Y009353D03*
X008706Y009375D03*
X007897Y013015D03*
X005141Y013408D03*
X002975Y011558D03*
X001519Y013802D03*
X014944Y013487D03*
X017168Y014196D03*
X019383Y014885D03*
X019255Y012897D03*
X019570Y012188D03*
X022070Y012542D03*
X023723Y012070D03*
X025269Y013753D03*
X025150Y015111D03*
X023664Y015141D03*
X022168Y014865D03*
X017865Y016845D03*
X022365Y019393D03*
X021814Y020711D03*
X021814Y022030D03*
X021145Y022129D03*
X017601Y022129D03*
X017385Y023763D03*
X017385Y026046D03*
X026026Y021814D03*
X029019Y022129D03*
X026046Y019314D03*
X026952Y017739D03*
X027641Y016853D03*
X028428Y016912D03*
X028404Y013877D03*
X028389Y013034D03*
X033015Y011479D03*
X033684Y010613D03*
X024235Y008290D03*
X022696Y008286D03*
X021538Y009038D03*
X022227Y009235D03*
X021145Y009629D03*
X019058Y007326D03*
X018566Y005652D03*
X019708Y005436D03*
X021479Y006164D03*
X024235Y005495D03*
X017604Y003096D03*
X033015Y019432D03*
X033251Y020298D03*
X027641Y025711D03*
X028428Y026952D03*
X029019Y027837D03*
X026952Y028428D03*
M02*
