G75*
G70*
%OFA0B0*%
%FSLAX24Y24*%
%IPPOS*%
%LPD*%
%AMOC8*
5,1,8,0,0,1.08239X$1,22.5*
%
%ADD10C,0.0060*%
%ADD11C,0.0100*%
%ADD12C,0.0030*%
%ADD13C,0.0080*%
%ADD14C,0.0050*%
%ADD15C,0.0040*%
D10*
X002790Y012455D02*
X002790Y013575D01*
X003310Y013575D01*
X003310Y012455D01*
X002790Y012455D01*
X013911Y018703D02*
X014018Y018596D01*
X014231Y018596D01*
X014338Y018703D01*
X014338Y018916D01*
X014124Y018916D01*
X013911Y019130D02*
X013911Y018703D01*
X013911Y019130D02*
X014018Y019236D01*
X014231Y019236D01*
X014338Y019130D01*
X014555Y019236D02*
X014982Y018596D01*
X014982Y019236D01*
X015200Y019236D02*
X015520Y019236D01*
X015627Y019130D01*
X015627Y018703D01*
X015520Y018596D01*
X015200Y018596D01*
X015200Y019236D01*
X014555Y019236D02*
X014555Y018596D01*
X017072Y023387D02*
X017072Y026277D01*
X022012Y026277D01*
X022012Y023387D01*
X017072Y023387D01*
X017212Y023747D02*
X017214Y023776D01*
X017220Y023804D01*
X017229Y023831D01*
X017243Y023856D01*
X017259Y023880D01*
X017279Y023900D01*
X017301Y023919D01*
X017325Y023933D01*
X017352Y023945D01*
X017379Y023953D01*
X017408Y023957D01*
X017436Y023957D01*
X017465Y023953D01*
X017492Y023945D01*
X017519Y023933D01*
X017543Y023919D01*
X017565Y023900D01*
X017585Y023880D01*
X017601Y023856D01*
X017615Y023831D01*
X017624Y023804D01*
X017630Y023776D01*
X017632Y023747D01*
X017630Y023718D01*
X017624Y023690D01*
X017615Y023663D01*
X017601Y023638D01*
X017585Y023614D01*
X017565Y023594D01*
X017543Y023575D01*
X017519Y023561D01*
X017492Y023549D01*
X017465Y023541D01*
X017436Y023537D01*
X017408Y023537D01*
X017379Y023541D01*
X017352Y023549D01*
X017325Y023561D01*
X017301Y023575D01*
X017279Y023594D01*
X017259Y023614D01*
X017243Y023638D01*
X017229Y023663D01*
X017220Y023690D01*
X017214Y023718D01*
X017212Y023747D01*
D11*
X021219Y016436D02*
X026337Y016436D01*
X026436Y016337D01*
X026436Y011023D01*
X026337Y010924D01*
X021023Y010924D01*
X020924Y011023D01*
X020924Y016141D01*
X021219Y016436D01*
X021220Y016042D02*
X021222Y016061D01*
X021227Y016080D01*
X021237Y016096D01*
X021249Y016111D01*
X021264Y016123D01*
X021280Y016133D01*
X021299Y016138D01*
X021318Y016140D01*
X021337Y016138D01*
X021356Y016133D01*
X021372Y016123D01*
X021387Y016111D01*
X021399Y016096D01*
X021409Y016080D01*
X021414Y016061D01*
X021416Y016042D01*
X021414Y016023D01*
X021409Y016004D01*
X021399Y015988D01*
X021387Y015973D01*
X021372Y015961D01*
X021356Y015951D01*
X021337Y015946D01*
X021318Y015944D01*
X021299Y015946D01*
X021280Y015951D01*
X021264Y015961D01*
X021249Y015973D01*
X021237Y015988D01*
X021227Y016004D01*
X021222Y016023D01*
X021220Y016042D01*
D12*
X004265Y000738D02*
X004203Y000800D01*
X004203Y001108D01*
X004450Y001108D02*
X004450Y000800D01*
X004388Y000738D01*
X004265Y000738D01*
X004572Y000800D02*
X004633Y000738D01*
X004757Y000738D01*
X004818Y000800D01*
X004818Y000861D01*
X004757Y000923D01*
X004695Y000923D01*
X004757Y000923D02*
X004818Y000985D01*
X004818Y001047D01*
X004757Y001108D01*
X004633Y001108D01*
X004572Y001047D01*
X005805Y001048D02*
X005805Y000801D01*
X005867Y000739D01*
X005990Y000739D01*
X006052Y000801D01*
X006173Y000801D02*
X006235Y000739D01*
X006358Y000739D01*
X006420Y000801D01*
X006420Y000863D01*
X006358Y000925D01*
X006173Y000925D01*
X006173Y000801D01*
X006173Y000925D02*
X006297Y001048D01*
X006420Y001110D01*
X006052Y001048D02*
X005990Y001110D01*
X005867Y001110D01*
X005805Y001048D01*
X008841Y001079D02*
X008841Y000832D01*
X008902Y000770D01*
X009026Y000770D01*
X009088Y000832D01*
X009209Y000832D02*
X009209Y000770D01*
X009209Y000832D02*
X009456Y001079D01*
X009456Y001141D01*
X009209Y001141D01*
X009088Y001079D02*
X009026Y001141D01*
X008902Y001141D01*
X008841Y001079D01*
X011579Y001116D02*
X011579Y000869D01*
X011641Y000807D01*
X011764Y000807D01*
X011826Y000869D01*
X011947Y000869D02*
X011947Y000931D01*
X012009Y000992D01*
X012132Y000992D01*
X012194Y000931D01*
X012194Y000869D01*
X012132Y000807D01*
X012009Y000807D01*
X011947Y000869D01*
X012009Y000992D02*
X011947Y001054D01*
X011947Y001116D01*
X012009Y001178D01*
X012132Y001178D01*
X012194Y001116D01*
X012194Y001054D01*
X012132Y000992D01*
X011826Y001116D02*
X011764Y001178D01*
X011641Y001178D01*
X011579Y001116D01*
X013370Y003836D02*
X013370Y004207D01*
X013555Y004207D01*
X013617Y004145D01*
X013617Y004021D01*
X013555Y003960D01*
X013370Y003960D01*
X013493Y003960D02*
X013617Y003836D01*
X013738Y003836D02*
X013738Y003898D01*
X013985Y004145D01*
X013985Y004207D01*
X013738Y004207D01*
X011200Y004530D02*
X011152Y004481D01*
X011055Y004481D01*
X011007Y004530D01*
X011200Y004723D01*
X011200Y004530D01*
X011200Y004723D02*
X011152Y004772D01*
X011055Y004772D01*
X011007Y004723D01*
X011007Y004530D01*
X010905Y004481D02*
X010712Y004481D01*
X010905Y004675D01*
X010905Y004723D01*
X010857Y004772D01*
X010760Y004772D01*
X010712Y004723D01*
X010700Y005631D02*
X010507Y005631D01*
X010603Y005631D02*
X010603Y005922D01*
X010507Y005825D01*
X010405Y005825D02*
X010405Y005873D01*
X010357Y005922D01*
X010260Y005922D01*
X010212Y005873D01*
X010405Y005825D02*
X010212Y005631D01*
X010405Y005631D01*
X010405Y008631D02*
X010212Y008631D01*
X010405Y008825D01*
X010405Y008873D01*
X010357Y008922D01*
X010260Y008922D01*
X010212Y008873D01*
X010507Y008922D02*
X010700Y008922D01*
X010700Y008873D01*
X010507Y008680D01*
X010507Y008631D01*
X010712Y009731D02*
X010905Y009925D01*
X010905Y009973D01*
X010857Y010022D01*
X010760Y010022D01*
X010712Y009973D01*
X010712Y009731D02*
X010905Y009731D01*
X011007Y009780D02*
X011007Y009828D01*
X011055Y009876D01*
X011152Y009876D01*
X011200Y009828D01*
X011200Y009780D01*
X011152Y009731D01*
X011055Y009731D01*
X011007Y009780D01*
X011055Y009876D02*
X011007Y009925D01*
X011007Y009973D01*
X011055Y010022D01*
X011152Y010022D01*
X011200Y009973D01*
X011200Y009925D01*
X011152Y009876D01*
X007056Y013538D02*
X006995Y013476D01*
X006871Y013476D01*
X006809Y013538D01*
X006688Y013476D02*
X006565Y013600D01*
X006626Y013600D02*
X006441Y013600D01*
X006441Y013476D02*
X006441Y013847D01*
X006626Y013847D01*
X006688Y013785D01*
X006688Y013662D01*
X006626Y013600D01*
X006809Y013785D02*
X006871Y013847D01*
X006995Y013847D01*
X007056Y013785D01*
X007056Y013723D01*
X006995Y013662D01*
X007056Y013600D01*
X007056Y013538D01*
X006995Y013662D02*
X006933Y013662D01*
X005498Y012278D02*
X005313Y012092D01*
X005560Y012092D01*
X005498Y011907D02*
X005498Y012278D01*
X005191Y012216D02*
X005191Y012092D01*
X005130Y012031D01*
X004945Y012031D01*
X005068Y012031D02*
X005191Y011907D01*
X004945Y011907D02*
X004945Y012278D01*
X005130Y012278D01*
X005191Y012216D01*
X004424Y013823D02*
X004301Y013823D01*
X004239Y013885D01*
X004239Y013946D01*
X004301Y014008D01*
X004424Y014008D01*
X004486Y013946D01*
X004486Y013885D01*
X004424Y013823D01*
X004424Y014008D02*
X004486Y014070D01*
X004486Y014132D01*
X004424Y014193D01*
X004301Y014193D01*
X004239Y014132D01*
X004239Y014070D01*
X004301Y014008D01*
X004118Y013946D02*
X004118Y013885D01*
X004056Y013823D01*
X003933Y013823D01*
X003871Y013885D01*
X003750Y013823D02*
X003503Y013823D01*
X003626Y013823D02*
X003626Y014193D01*
X003503Y014070D01*
X003381Y014132D02*
X003320Y014193D01*
X003196Y014193D01*
X003134Y014132D01*
X003134Y014070D01*
X003196Y014008D01*
X003320Y014008D01*
X003381Y013946D01*
X003381Y013885D01*
X003320Y013823D01*
X003196Y013823D01*
X003134Y013885D01*
X003013Y013885D02*
X002951Y013823D01*
X002828Y013823D01*
X002766Y013885D01*
X002645Y013885D02*
X002583Y013823D01*
X002398Y013823D01*
X002398Y014193D01*
X002583Y014193D01*
X002645Y014132D01*
X002645Y014070D01*
X002583Y014008D01*
X002398Y014008D01*
X002583Y014008D02*
X002645Y013946D01*
X002645Y013885D01*
X002828Y014008D02*
X002951Y014008D01*
X003013Y013946D01*
X003013Y013885D01*
X002828Y014008D02*
X002766Y014070D01*
X002766Y014132D01*
X002828Y014193D01*
X002951Y014193D01*
X003013Y014132D01*
X003871Y014132D02*
X003933Y014193D01*
X004056Y014193D01*
X004118Y014132D01*
X004118Y014070D01*
X004056Y014008D01*
X004118Y013946D01*
X004056Y014008D02*
X003994Y014008D01*
X004315Y015017D02*
X004315Y015388D01*
X004500Y015388D01*
X004562Y015326D01*
X004562Y015203D01*
X004500Y015141D01*
X004315Y015141D01*
X004438Y015141D02*
X004562Y015017D01*
X004683Y015079D02*
X004745Y015017D01*
X004868Y015017D01*
X004930Y015079D01*
X004930Y015326D01*
X004868Y015388D01*
X004745Y015388D01*
X004683Y015326D01*
X004683Y015264D01*
X004745Y015203D01*
X004930Y015203D01*
X004908Y016159D02*
X004784Y016159D01*
X004722Y016221D01*
X004969Y016468D01*
X004969Y016221D01*
X004908Y016159D01*
X004722Y016221D02*
X004722Y016468D01*
X004784Y016529D01*
X004908Y016529D01*
X004969Y016468D01*
X004601Y016159D02*
X004354Y016159D01*
X004233Y016159D02*
X004109Y016283D01*
X004171Y016283D02*
X003986Y016283D01*
X003986Y016159D02*
X003986Y016529D01*
X004171Y016529D01*
X004233Y016468D01*
X004233Y016344D01*
X004171Y016283D01*
X004354Y016406D02*
X004477Y016529D01*
X004477Y016159D01*
X004517Y017340D02*
X004517Y017711D01*
X004393Y017587D01*
X004272Y017649D02*
X004272Y017525D01*
X004210Y017464D01*
X004025Y017464D01*
X004149Y017464D02*
X004272Y017340D01*
X004393Y017340D02*
X004640Y017340D01*
X004762Y017340D02*
X005009Y017340D01*
X004885Y017340D02*
X004885Y017711D01*
X004762Y017587D01*
X004272Y017649D02*
X004210Y017711D01*
X004025Y017711D01*
X004025Y017340D01*
X001820Y015933D02*
X001573Y015933D01*
X001573Y015748D01*
X001697Y015810D01*
X001758Y015810D01*
X001820Y015748D01*
X001820Y015625D01*
X001758Y015563D01*
X001635Y015563D01*
X001573Y015625D01*
X001452Y015563D02*
X001328Y015687D01*
X001390Y015687D02*
X001205Y015687D01*
X001205Y015563D02*
X001205Y015933D01*
X001390Y015933D01*
X001452Y015872D01*
X001452Y015748D01*
X001390Y015687D01*
X001468Y013301D02*
X001283Y013301D01*
X001283Y012931D01*
X001283Y013054D02*
X001468Y013054D01*
X001530Y013116D01*
X001530Y013239D01*
X001468Y013301D01*
X001651Y013239D02*
X001713Y013301D01*
X001837Y013301D01*
X001898Y013239D01*
X001898Y013178D01*
X001651Y012931D01*
X001898Y012931D01*
X001530Y012931D02*
X001407Y013054D01*
X001357Y010022D02*
X001212Y009876D01*
X001405Y009876D01*
X001507Y009780D02*
X001507Y009731D01*
X001507Y009780D02*
X001700Y009973D01*
X001700Y010022D01*
X001507Y010022D01*
X001357Y010022D02*
X001357Y009731D01*
X001857Y006922D02*
X001712Y006776D01*
X001905Y006776D01*
X002007Y006825D02*
X002007Y006873D01*
X002055Y006922D01*
X002152Y006922D01*
X002200Y006873D01*
X002200Y006680D01*
X002152Y006631D01*
X002055Y006631D01*
X002007Y006680D01*
X002055Y006776D02*
X002200Y006776D01*
X002055Y006776D02*
X002007Y006825D01*
X001857Y006922D02*
X001857Y006631D01*
X001857Y005672D02*
X001712Y005526D01*
X001905Y005526D01*
X002007Y005478D02*
X002055Y005526D01*
X002152Y005526D01*
X002200Y005478D01*
X002200Y005430D01*
X002152Y005381D01*
X002055Y005381D01*
X002007Y005430D01*
X002007Y005478D01*
X002055Y005526D02*
X002007Y005575D01*
X002007Y005623D01*
X002055Y005672D01*
X002152Y005672D01*
X002200Y005623D01*
X002200Y005575D01*
X002152Y005526D01*
X001857Y005381D02*
X001857Y005672D01*
X001453Y004772D02*
X001453Y004481D01*
X001357Y004481D02*
X001550Y004481D01*
X001357Y004675D02*
X001453Y004772D01*
X015929Y014739D02*
X015991Y014677D01*
X016114Y014677D01*
X016176Y014739D01*
X016298Y014739D02*
X016359Y014677D01*
X016483Y014677D01*
X016544Y014739D01*
X016544Y014801D01*
X016483Y014862D01*
X016421Y014862D01*
X016483Y014862D02*
X016544Y014924D01*
X016544Y014986D01*
X016483Y015048D01*
X016359Y015048D01*
X016298Y014986D01*
X016176Y014986D02*
X016114Y015048D01*
X015991Y015048D01*
X015929Y014986D01*
X015929Y014739D01*
X014694Y014837D02*
X014632Y014776D01*
X014509Y014776D01*
X014447Y014837D01*
X014326Y014837D02*
X014264Y014776D01*
X014141Y014776D01*
X014079Y014837D01*
X014079Y015084D01*
X014141Y015146D01*
X014264Y015146D01*
X014326Y015084D01*
X014447Y015146D02*
X014447Y014961D01*
X014571Y015023D01*
X014632Y015023D01*
X014694Y014961D01*
X014694Y014837D01*
X014694Y015146D02*
X014447Y015146D01*
X017740Y015084D02*
X017740Y014837D01*
X017802Y014776D01*
X017925Y014776D01*
X017987Y014837D01*
X018109Y014776D02*
X018355Y014776D01*
X018232Y014776D02*
X018232Y015146D01*
X018109Y015023D01*
X017987Y015084D02*
X017925Y015146D01*
X017802Y015146D01*
X017740Y015084D01*
X021459Y013229D02*
X021459Y012982D01*
X021459Y013168D02*
X021706Y013168D01*
X021706Y013229D02*
X021706Y012982D01*
X021951Y012982D02*
X021951Y013353D01*
X022074Y013353D02*
X021827Y013353D01*
X021706Y013229D02*
X021582Y013353D01*
X021459Y013229D01*
X022195Y013353D02*
X022195Y012982D01*
X022442Y012982D02*
X022442Y013353D01*
X022319Y013229D01*
X022195Y013353D01*
X022564Y013353D02*
X022564Y012982D01*
X022811Y012982D01*
X022932Y013044D02*
X022932Y013291D01*
X022994Y013353D01*
X023117Y013353D01*
X023179Y013291D01*
X023179Y013168D02*
X023055Y013168D01*
X023179Y013168D02*
X023179Y013044D01*
X023117Y012982D01*
X022994Y012982D01*
X022932Y013044D01*
X022687Y013168D02*
X022564Y013168D01*
X022564Y013353D02*
X022811Y013353D01*
X023300Y013229D02*
X023300Y012982D01*
X023300Y013168D02*
X023547Y013168D01*
X023547Y013229D02*
X023547Y012982D01*
X023669Y012982D02*
X023916Y013229D01*
X023916Y013291D01*
X023854Y013353D01*
X023730Y013353D01*
X023669Y013291D01*
X023547Y013229D02*
X023424Y013353D01*
X023300Y013229D01*
X023669Y012982D02*
X023916Y012982D01*
X024037Y013044D02*
X024099Y012982D01*
X024222Y012982D01*
X024284Y013044D01*
X024284Y013168D01*
X024222Y013229D01*
X024160Y013229D01*
X024037Y013168D01*
X024037Y013353D01*
X024284Y013353D01*
X024405Y013168D02*
X024405Y013044D01*
X024467Y012982D01*
X024590Y012982D01*
X024652Y013044D01*
X024652Y013106D01*
X024590Y013168D01*
X024405Y013168D01*
X024529Y013291D01*
X024652Y013353D01*
X024774Y013291D02*
X024835Y013353D01*
X024959Y013353D01*
X025020Y013291D01*
X024774Y013044D01*
X024835Y012982D01*
X024959Y012982D01*
X025020Y013044D01*
X025020Y013291D01*
X025142Y013229D02*
X025265Y013353D01*
X025389Y013229D01*
X025389Y012982D01*
X025510Y013044D02*
X025572Y012982D01*
X025695Y012982D01*
X025757Y013044D01*
X025757Y013353D01*
X025510Y013353D02*
X025510Y013044D01*
X025389Y013168D02*
X025142Y013168D01*
X025142Y013229D02*
X025142Y012982D01*
X024774Y013044D02*
X024774Y013291D01*
X026620Y009638D02*
X026743Y009514D01*
X026743Y009267D01*
X026743Y009453D02*
X026497Y009453D01*
X026497Y009514D02*
X026497Y009267D01*
X026497Y009514D02*
X026620Y009638D01*
X026865Y009638D02*
X027112Y009638D01*
X027233Y009638D02*
X027233Y009267D01*
X027480Y009267D01*
X027601Y009267D02*
X027601Y009514D01*
X027725Y009638D01*
X027848Y009514D01*
X027848Y009267D01*
X027970Y009329D02*
X028031Y009267D01*
X028155Y009267D01*
X028217Y009329D01*
X028217Y009391D01*
X028155Y009453D01*
X028031Y009453D01*
X027970Y009514D01*
X027970Y009576D01*
X028031Y009638D01*
X028155Y009638D01*
X028217Y009576D01*
X027848Y009453D02*
X027601Y009453D01*
X026988Y009267D02*
X026988Y009638D01*
X028338Y009206D02*
X028585Y009206D01*
X028706Y009267D02*
X028706Y009638D01*
X028953Y009638D01*
X029075Y009576D02*
X029075Y009329D01*
X029136Y009267D01*
X029260Y009267D01*
X029322Y009329D01*
X029322Y009576D02*
X029260Y009638D01*
X029136Y009638D01*
X029075Y009576D01*
X028830Y009453D02*
X028706Y009453D01*
X028706Y009267D02*
X028953Y009267D01*
X025402Y006901D02*
X025341Y006963D01*
X025217Y006963D01*
X025155Y006901D01*
X025155Y006839D01*
X025217Y006777D01*
X025402Y006777D01*
X025402Y006654D02*
X025402Y006901D01*
X025402Y006654D02*
X025341Y006592D01*
X025217Y006592D01*
X025155Y006654D01*
X025034Y006654D02*
X024972Y006592D01*
X024849Y006592D01*
X024787Y006654D01*
X024787Y006901D01*
X024849Y006963D01*
X024972Y006963D01*
X025034Y006901D01*
X021795Y005635D02*
X021548Y005389D01*
X021609Y005327D01*
X021733Y005327D01*
X021795Y005389D01*
X021795Y005635D01*
X021733Y005697D01*
X021609Y005697D01*
X021548Y005635D01*
X021548Y005389D01*
X021426Y005327D02*
X021179Y005327D01*
X021303Y005327D02*
X021303Y005697D01*
X021179Y005574D01*
X021058Y005635D02*
X020996Y005697D01*
X020873Y005697D01*
X020811Y005635D01*
X020811Y005389D01*
X020873Y005327D01*
X020996Y005327D01*
X021058Y005389D01*
X020048Y006941D02*
X019802Y006941D01*
X019680Y006941D02*
X019557Y007065D01*
X019618Y007065D02*
X019433Y007065D01*
X019433Y006941D02*
X019433Y007311D01*
X019618Y007311D01*
X019680Y007250D01*
X019680Y007126D01*
X019618Y007065D01*
X019802Y007188D02*
X019925Y007311D01*
X019925Y006941D01*
X017689Y004179D02*
X017689Y003809D01*
X017812Y003809D02*
X017565Y003809D01*
X017382Y003933D02*
X017197Y003933D01*
X017197Y003809D02*
X017197Y004179D01*
X017382Y004179D01*
X017444Y004118D01*
X017444Y003994D01*
X017382Y003933D01*
X017565Y004056D02*
X017689Y004179D01*
X017076Y004179D02*
X016952Y004179D01*
X017014Y004179D02*
X017014Y003871D01*
X016952Y003809D01*
X016891Y003809D01*
X016829Y003871D01*
X034073Y003278D02*
X034073Y002908D01*
X034258Y002908D01*
X034320Y002969D01*
X034320Y003031D01*
X034258Y003093D01*
X034073Y003093D01*
X034073Y003278D02*
X034258Y003278D01*
X034320Y003216D01*
X034320Y003154D01*
X034258Y003093D01*
X034441Y002908D02*
X034441Y003278D01*
X034688Y002908D01*
X034688Y003278D01*
X034810Y003216D02*
X034871Y003278D01*
X034995Y003278D01*
X035056Y003216D01*
X035178Y003093D02*
X035425Y003093D01*
X035546Y003093D02*
X035670Y003093D01*
X035793Y003278D02*
X035546Y003278D01*
X035546Y002908D01*
X035793Y002908D01*
X035915Y002969D02*
X035976Y002908D01*
X036100Y002908D01*
X036161Y002969D01*
X035915Y002969D02*
X035915Y003216D01*
X035976Y003278D01*
X036100Y003278D01*
X036161Y003216D01*
X035056Y002969D02*
X034995Y002908D01*
X034871Y002908D01*
X034810Y002969D01*
X034810Y003216D01*
X034728Y010782D02*
X034728Y011152D01*
X034849Y011090D02*
X034911Y011152D01*
X035034Y011152D01*
X035096Y011090D01*
X035217Y010967D02*
X035464Y010967D01*
X035586Y010967D02*
X035832Y010967D01*
X035832Y011028D02*
X035832Y010782D01*
X035954Y010843D02*
X036016Y010782D01*
X036139Y010782D01*
X036201Y010843D01*
X036201Y011090D01*
X036139Y011152D01*
X036016Y011152D01*
X035954Y011090D01*
X035954Y010843D01*
X036077Y010905D02*
X036201Y010782D01*
X036322Y010843D02*
X036384Y010782D01*
X036507Y010782D01*
X036569Y010843D01*
X036569Y011152D01*
X036691Y011028D02*
X036814Y011152D01*
X036937Y011028D01*
X036937Y010782D01*
X036937Y010967D02*
X036691Y010967D01*
X036691Y011028D02*
X036691Y010782D01*
X036322Y010843D02*
X036322Y011152D01*
X035832Y011028D02*
X035709Y011152D01*
X035586Y011028D01*
X035586Y010782D01*
X035096Y010843D02*
X035034Y010782D01*
X034911Y010782D01*
X034849Y010843D01*
X034849Y011090D01*
X034728Y010782D02*
X034481Y011152D01*
X034481Y010782D01*
X034359Y010843D02*
X034297Y010782D01*
X034112Y010782D01*
X034112Y011152D01*
X034297Y011152D01*
X034359Y011090D01*
X034359Y011028D01*
X034297Y010967D01*
X034112Y010967D01*
X034297Y010967D02*
X034359Y010905D01*
X034359Y010843D01*
X037059Y010967D02*
X037306Y010967D01*
X037427Y011152D02*
X037674Y011152D01*
X037795Y011152D02*
X037795Y010782D01*
X038042Y010782D01*
X038164Y010782D02*
X038164Y011152D01*
X038287Y011028D01*
X038411Y011152D01*
X038411Y010782D01*
X038532Y010782D02*
X038532Y011152D01*
X038717Y011152D01*
X038779Y011090D01*
X038779Y010967D01*
X038717Y010905D01*
X038532Y010905D01*
X038042Y011152D02*
X037795Y011152D01*
X037795Y010967D02*
X037919Y010967D01*
X037551Y010782D02*
X037551Y011152D01*
X036161Y018065D02*
X036161Y018435D01*
X036161Y018250D02*
X035915Y018250D01*
X035793Y018250D02*
X035731Y018189D01*
X035546Y018189D01*
X035546Y018065D02*
X035546Y018435D01*
X035731Y018435D01*
X035793Y018374D01*
X035793Y018250D01*
X035915Y018065D02*
X035915Y018435D01*
X035425Y018250D02*
X035178Y018250D01*
X035056Y018127D02*
X034995Y018065D01*
X034871Y018065D01*
X034810Y018127D01*
X034810Y018374D01*
X034871Y018435D01*
X034995Y018435D01*
X035056Y018374D01*
X034688Y018435D02*
X034688Y018065D01*
X034441Y018435D01*
X034441Y018065D01*
X034320Y018127D02*
X034258Y018065D01*
X034073Y018065D01*
X034073Y018435D01*
X034258Y018435D01*
X034320Y018374D01*
X034320Y018312D01*
X034258Y018250D01*
X034073Y018250D01*
X034258Y018250D02*
X034320Y018189D01*
X034320Y018127D01*
X025363Y018465D02*
X025301Y018403D01*
X025178Y018403D01*
X025116Y018465D01*
X025116Y018527D01*
X025178Y018588D01*
X025301Y018588D01*
X025363Y018527D01*
X025363Y018465D01*
X025301Y018588D02*
X025363Y018650D01*
X025363Y018712D01*
X025301Y018774D01*
X025178Y018774D01*
X025116Y018712D01*
X025116Y018650D01*
X025178Y018588D01*
X024995Y018588D02*
X024933Y018527D01*
X024748Y018527D01*
X024871Y018527D02*
X024995Y018403D01*
X024995Y018588D02*
X024995Y018712D01*
X024933Y018774D01*
X024748Y018774D01*
X024748Y018403D01*
X022936Y018661D02*
X022689Y018661D01*
X022874Y018846D01*
X022874Y018476D01*
X022567Y018538D02*
X022506Y018476D01*
X022382Y018476D01*
X022320Y018538D01*
X022320Y018785D01*
X022382Y018846D01*
X022506Y018846D01*
X022567Y018785D01*
X020717Y018836D02*
X020470Y018836D01*
X020717Y019083D01*
X020717Y019145D01*
X020656Y019207D01*
X020532Y019207D01*
X020470Y019145D01*
X020349Y019145D02*
X020287Y019207D01*
X020164Y019207D01*
X020102Y019145D01*
X020102Y018898D01*
X020164Y018836D01*
X020287Y018836D01*
X020349Y018898D01*
X020358Y021894D02*
X020543Y021894D01*
X020605Y021956D01*
X020605Y022203D01*
X020543Y022264D01*
X020358Y022264D01*
X020358Y021894D01*
X020236Y021956D02*
X020236Y022203D01*
X020174Y022264D01*
X019989Y022264D01*
X019989Y021894D01*
X020174Y021894D01*
X020236Y021956D01*
X019868Y021956D02*
X019806Y021894D01*
X019683Y021894D01*
X019621Y021956D01*
X019500Y021956D02*
X019500Y022203D01*
X019438Y022264D01*
X019314Y022264D01*
X019253Y022203D01*
X019253Y022141D01*
X019314Y022079D01*
X019500Y022079D01*
X019500Y021956D02*
X019438Y021894D01*
X019314Y021894D01*
X019253Y021956D01*
X019131Y021894D02*
X018884Y021894D01*
X019131Y022141D01*
X019131Y022203D01*
X019070Y022264D01*
X018946Y022264D01*
X018884Y022203D01*
X018763Y022203D02*
X018701Y022264D01*
X018516Y022264D01*
X018516Y021894D01*
X018701Y021894D01*
X018763Y021956D01*
X018763Y022203D01*
X018395Y021894D02*
X018148Y021894D01*
X018148Y022264D01*
X019621Y022203D02*
X019683Y022264D01*
X019806Y022264D01*
X019868Y022203D01*
X019868Y022141D01*
X019806Y022079D01*
X019868Y022017D01*
X019868Y021956D01*
X019806Y022079D02*
X019744Y022079D01*
X022662Y025149D02*
X022662Y025396D01*
X022785Y025520D01*
X022909Y025396D01*
X022909Y025149D01*
X022909Y025334D02*
X022662Y025334D01*
X023030Y025520D02*
X023277Y025520D01*
X023398Y025520D02*
X023398Y025149D01*
X023645Y025149D01*
X023767Y025149D02*
X023767Y025396D01*
X023890Y025520D01*
X024014Y025396D01*
X024014Y025149D01*
X024135Y025211D02*
X024197Y025149D01*
X024320Y025149D01*
X024382Y025211D01*
X024382Y025273D01*
X024320Y025334D01*
X024197Y025334D01*
X024135Y025396D01*
X024135Y025458D01*
X024197Y025520D01*
X024320Y025520D01*
X024382Y025458D01*
X024503Y025334D02*
X024750Y025334D01*
X024872Y025273D02*
X025057Y025273D01*
X025119Y025334D01*
X025119Y025458D01*
X025057Y025520D01*
X024872Y025520D01*
X024872Y025149D01*
X025240Y025149D02*
X025240Y025520D01*
X025240Y025334D02*
X025487Y025334D01*
X025487Y025149D02*
X025487Y025520D01*
X024014Y025334D02*
X023767Y025334D01*
X023154Y025149D02*
X023154Y025520D01*
X023207Y028602D02*
X023207Y028972D01*
X022961Y028972D02*
X023207Y028602D01*
X022961Y028602D02*
X022961Y028972D01*
X022839Y028911D02*
X022839Y028664D01*
X022777Y028602D01*
X022654Y028602D01*
X022592Y028664D01*
X022592Y028911D01*
X022654Y028972D01*
X022777Y028972D01*
X022839Y028911D01*
X022471Y028972D02*
X022224Y028972D01*
X022102Y028972D02*
X021856Y028972D01*
X021734Y028972D02*
X021734Y028664D01*
X021672Y028602D01*
X021549Y028602D01*
X021487Y028664D01*
X021487Y028972D01*
X021366Y028911D02*
X021366Y028849D01*
X021304Y028787D01*
X021119Y028787D01*
X021119Y028602D02*
X021119Y028972D01*
X021304Y028972D01*
X021366Y028911D01*
X021304Y028787D02*
X021366Y028726D01*
X021366Y028664D01*
X021304Y028602D01*
X021119Y028602D01*
X021979Y028602D02*
X021979Y028972D01*
X022347Y028972D02*
X022347Y028602D01*
X024887Y028933D02*
X025072Y028933D01*
X025134Y028995D01*
X025134Y029241D01*
X025072Y029303D01*
X024887Y029303D01*
X024887Y028933D01*
X025255Y028933D02*
X025255Y029303D01*
X025255Y029118D02*
X025502Y029118D01*
X025502Y029303D02*
X025502Y028933D01*
X025747Y028933D02*
X025747Y029303D01*
X025870Y029303D02*
X025623Y029303D01*
X025992Y029118D02*
X026239Y029118D01*
X026360Y029241D02*
X026422Y029303D01*
X026545Y029303D01*
X026607Y029241D01*
X026607Y029180D01*
X026360Y028933D01*
X026607Y028933D01*
X026728Y028933D02*
X026975Y029180D01*
X026975Y029241D01*
X026913Y029303D01*
X026790Y029303D01*
X026728Y029241D01*
X026728Y028933D02*
X026975Y028933D01*
X029718Y028921D02*
X029718Y028550D01*
X029718Y028674D02*
X029903Y028674D01*
X029964Y028735D01*
X029964Y028859D01*
X029903Y028921D01*
X029718Y028921D01*
X029841Y028674D02*
X029964Y028550D01*
X030086Y028550D02*
X030333Y028550D01*
X030454Y028550D02*
X030701Y028797D01*
X030701Y028859D01*
X030639Y028921D01*
X030516Y028921D01*
X030454Y028859D01*
X030209Y028921D02*
X030209Y028550D01*
X030454Y028550D02*
X030701Y028550D01*
X030209Y028921D02*
X030086Y028797D01*
X018076Y028922D02*
X018076Y028983D01*
X018014Y029045D01*
X017829Y029045D01*
X017829Y028922D01*
X017890Y028860D01*
X018014Y028860D01*
X018076Y028922D01*
X017829Y029045D02*
X017952Y029169D01*
X018076Y029230D01*
X017707Y029169D02*
X017707Y029045D01*
X017645Y028983D01*
X017460Y028983D01*
X017460Y028860D02*
X017460Y029230D01*
X017645Y029230D01*
X017707Y029169D01*
X017584Y028983D02*
X017707Y028860D01*
X011845Y025736D02*
X011598Y025736D01*
X011598Y025551D01*
X011722Y025613D01*
X011783Y025613D01*
X011845Y025551D01*
X011845Y025428D01*
X011783Y025366D01*
X011660Y025366D01*
X011598Y025428D01*
X011477Y025428D02*
X011415Y025366D01*
X011292Y025366D01*
X011230Y025428D01*
X011477Y025674D01*
X011477Y025428D01*
X011477Y025674D02*
X011415Y025736D01*
X011292Y025736D01*
X011230Y025674D01*
X011230Y025428D01*
X011109Y025366D02*
X011109Y025613D01*
X010985Y025736D01*
X010862Y025613D01*
X010862Y025366D01*
X010740Y025366D02*
X010493Y025366D01*
X010493Y025736D01*
X010372Y025674D02*
X010372Y025613D01*
X010310Y025551D01*
X010372Y025489D01*
X010372Y025428D01*
X010310Y025366D01*
X010187Y025366D01*
X010125Y025428D01*
X010004Y025428D02*
X009942Y025366D01*
X009818Y025366D01*
X009757Y025428D01*
X009880Y025551D02*
X009942Y025551D01*
X010004Y025489D01*
X010004Y025428D01*
X009942Y025551D02*
X010004Y025613D01*
X010004Y025674D01*
X009942Y025736D01*
X009818Y025736D01*
X009757Y025674D01*
X009635Y025736D02*
X009388Y025736D01*
X009512Y025736D02*
X009512Y025366D01*
X009267Y025366D02*
X009144Y025489D01*
X009205Y025489D02*
X009020Y025489D01*
X009020Y025366D02*
X009020Y025736D01*
X009205Y025736D01*
X009267Y025674D01*
X009267Y025551D01*
X009205Y025489D01*
X010125Y025674D02*
X010187Y025736D01*
X010310Y025736D01*
X010372Y025674D01*
X010310Y025551D02*
X010249Y025551D01*
X010862Y025551D02*
X011109Y025551D01*
X003499Y028551D02*
X003252Y028551D01*
X003252Y028921D01*
X003130Y028798D02*
X003130Y028551D01*
X003130Y028736D02*
X002884Y028736D01*
X002884Y028798D02*
X003007Y028921D01*
X003130Y028798D01*
X002884Y028798D02*
X002884Y028551D01*
X002762Y028551D02*
X002762Y028921D01*
X002515Y028921D02*
X002762Y028551D01*
X002515Y028551D02*
X002515Y028921D01*
X002393Y028921D02*
X002270Y028921D01*
X002331Y028921D02*
X002331Y028551D01*
X002270Y028551D02*
X002393Y028551D01*
X002148Y028551D02*
X002148Y028921D01*
X002025Y028798D01*
X001901Y028921D01*
X001901Y028551D01*
X001780Y028551D02*
X001657Y028674D01*
X001718Y028674D02*
X001533Y028674D01*
X001533Y028551D02*
X001533Y028921D01*
X001718Y028921D01*
X001780Y028860D01*
X001780Y028736D01*
X001718Y028674D01*
X001412Y028551D02*
X001165Y028551D01*
X001165Y028921D01*
X001412Y028921D01*
X001288Y028736D02*
X001165Y028736D01*
X001043Y028921D02*
X000796Y028921D01*
X000920Y028921D02*
X000920Y028551D01*
X006881Y017862D02*
X007066Y017862D01*
X007127Y017800D01*
X007127Y017677D01*
X007066Y017615D01*
X006881Y017615D01*
X007004Y017615D02*
X007127Y017492D01*
X007249Y017554D02*
X007311Y017492D01*
X007434Y017492D01*
X007496Y017554D01*
X007496Y017677D01*
X007372Y017677D01*
X007249Y017800D02*
X007249Y017554D01*
X007249Y017800D02*
X007311Y017862D01*
X007434Y017862D01*
X007496Y017800D01*
X007617Y017862D02*
X007802Y017862D01*
X007864Y017800D01*
X007864Y017739D01*
X007802Y017677D01*
X007617Y017677D01*
X007617Y017492D02*
X007617Y017862D01*
X007802Y017677D02*
X007864Y017615D01*
X007864Y017554D01*
X007802Y017492D01*
X007617Y017492D01*
X007986Y017677D02*
X008232Y017677D01*
X008354Y017492D02*
X008601Y017492D01*
X008722Y017492D02*
X008969Y017492D01*
X009090Y017492D02*
X009276Y017492D01*
X009337Y017554D01*
X009337Y017800D01*
X009276Y017862D01*
X009090Y017862D01*
X009090Y017492D01*
X008846Y017677D02*
X008722Y017677D01*
X008722Y017862D02*
X008722Y017492D01*
X008354Y017492D02*
X008354Y017862D01*
X008722Y017862D02*
X008969Y017862D01*
X006881Y017862D02*
X006881Y017492D01*
D13*
X004589Y019826D02*
X004589Y024826D01*
X016125Y024826D01*
X016125Y019826D01*
X004589Y019826D01*
X012718Y019095D02*
X012718Y018595D01*
X012968Y018345D01*
X013468Y018345D01*
X013718Y018095D01*
X013718Y017595D01*
X013468Y017345D01*
X012968Y017345D01*
X012718Y017595D01*
X012718Y018095D01*
X012968Y018345D01*
X013468Y018345D02*
X013718Y018595D01*
X013718Y019095D01*
X013468Y019345D01*
X012968Y019345D01*
X012718Y019095D01*
X012968Y017345D02*
X012718Y017095D01*
X012718Y016595D01*
X012968Y016345D01*
X013468Y016345D01*
X013718Y016095D01*
X013718Y015595D01*
X013468Y015345D01*
X012968Y015345D01*
X012718Y015595D01*
X012718Y016095D01*
X012968Y016345D01*
X013468Y016345D02*
X013718Y016595D01*
X013718Y017095D01*
X013468Y017345D01*
X013468Y015345D02*
X013718Y015095D01*
X013718Y014595D01*
X013468Y014345D01*
X012968Y014345D01*
X012718Y014595D01*
X012718Y015095D01*
X012968Y015345D01*
X012968Y014345D02*
X012718Y014095D01*
X012718Y013595D01*
X012968Y013345D01*
X013468Y013345D01*
X013718Y013595D01*
X013718Y014095D01*
X013468Y014345D01*
X017472Y008277D02*
X017972Y008277D01*
X017972Y008145D02*
X017472Y008145D01*
X017222Y007895D01*
X017222Y006395D01*
X016972Y006145D01*
X016472Y006145D01*
X016222Y006395D01*
X016222Y007895D01*
X015972Y008145D01*
X015472Y008145D01*
X015222Y007895D01*
X015222Y006395D01*
X015472Y006145D01*
X015972Y006145D01*
X016222Y006395D01*
X017222Y006395D02*
X017472Y006145D01*
X017972Y006145D01*
X018222Y006395D01*
X018222Y007895D01*
X017972Y008145D01*
X017222Y007895D02*
X016972Y008145D01*
X016472Y008145D01*
X016222Y007895D01*
X010613Y002259D02*
X010180Y002259D01*
X010613Y002259D02*
X010771Y002101D01*
X010771Y001471D01*
X010613Y001314D01*
X010180Y001314D01*
X009393Y001314D02*
X008802Y001314D01*
X008802Y002259D01*
X009393Y002259D01*
X007771Y002259D02*
X007771Y001314D01*
X007180Y001314D01*
X006393Y001314D02*
X005960Y001314D01*
X005802Y001471D01*
X005802Y002101D01*
X005960Y002259D01*
X006393Y002259D01*
X007180Y002259D02*
X007771Y002259D01*
X004798Y002030D02*
X004798Y001818D01*
X004648Y001364D02*
X004310Y001364D01*
X004310Y002484D02*
X004648Y002484D01*
X004589Y026282D02*
X004589Y031282D01*
X016125Y031282D01*
X016125Y026282D01*
X004589Y026282D01*
D14*
X004164Y028310D02*
X004164Y022168D01*
X000621Y022168D01*
X000621Y028310D01*
X004164Y028310D01*
X006826Y017306D02*
X009149Y017306D01*
X009149Y015141D01*
X006826Y015141D01*
X006826Y017306D01*
X008381Y015830D02*
X009129Y015830D01*
X008381Y015830D02*
X008381Y015160D01*
X011536Y010786D02*
X011536Y003786D01*
X001036Y003786D01*
X001036Y010786D01*
X011536Y010786D01*
X012660Y008054D02*
X012739Y008054D01*
X012739Y007542D01*
X012660Y007542D01*
X012660Y008054D01*
X012700Y008054D02*
X012700Y007542D01*
X012739Y008054D02*
X013763Y008054D01*
X013763Y007542D01*
X013763Y006991D02*
X013763Y006479D01*
X012739Y006479D01*
X012660Y006479D01*
X012660Y006991D01*
X012739Y006991D01*
X012739Y006479D01*
X012700Y006479D02*
X012700Y006991D01*
X014070Y003696D02*
X018086Y003696D01*
X018086Y000877D01*
X014070Y000877D01*
X014070Y003696D01*
X009936Y002186D02*
X009936Y001386D01*
X006636Y001386D02*
X006636Y002186D01*
X018967Y002956D02*
X018967Y000956D01*
X024967Y000956D01*
X024967Y002956D01*
X018967Y002956D01*
X022149Y005219D02*
X022149Y006558D01*
X023723Y006558D01*
X023723Y005219D01*
X022149Y005219D01*
X026358Y009046D02*
X026358Y001046D01*
X033608Y001046D01*
X033608Y009046D01*
X026358Y009046D01*
X027937Y010353D02*
X027937Y018353D01*
X033447Y018353D01*
X033447Y010353D01*
X027937Y010353D01*
X034049Y009429D02*
X039499Y009429D01*
X039499Y003529D01*
X034049Y003529D01*
X034049Y009429D01*
X034049Y011403D02*
X039499Y011403D01*
X039499Y017303D01*
X034049Y017303D01*
X034049Y011403D01*
X034049Y019277D02*
X039499Y019277D01*
X039499Y025177D01*
X034049Y025177D01*
X034049Y019277D01*
X030558Y019472D02*
X022558Y019472D01*
X022558Y024982D01*
X030558Y024982D01*
X030558Y019472D01*
X023645Y029241D02*
X020849Y029241D01*
X020849Y031997D01*
X023645Y031997D01*
X023645Y029241D01*
X024857Y029495D02*
X024857Y032526D01*
X030802Y032526D01*
X030802Y029495D01*
X024857Y029495D01*
D15*
X015944Y005989D02*
X015713Y005759D01*
X016020Y005759D01*
X015944Y005529D02*
X015944Y005989D01*
X015406Y005989D02*
X015253Y005836D01*
X015099Y005912D02*
X015099Y005759D01*
X015023Y005682D01*
X014793Y005682D01*
X014946Y005682D02*
X015099Y005529D01*
X015253Y005529D02*
X015560Y005529D01*
X015406Y005529D02*
X015406Y005989D01*
X015099Y005912D02*
X015023Y005989D01*
X014793Y005989D01*
X014793Y005529D01*
X016210Y004926D02*
X016210Y004466D01*
X016210Y004619D02*
X016440Y004619D01*
X016517Y004696D01*
X016517Y004849D01*
X016440Y004926D01*
X016210Y004926D01*
X016363Y004619D02*
X016517Y004466D01*
X016670Y004466D02*
X016977Y004466D01*
X016824Y004466D02*
X016824Y004926D01*
X016670Y004773D01*
X017131Y004849D02*
X017207Y004926D01*
X017361Y004926D01*
X017438Y004849D01*
X017438Y004773D01*
X017361Y004696D01*
X017438Y004619D01*
X017438Y004542D01*
X017361Y004466D01*
X017207Y004466D01*
X017131Y004542D01*
X017284Y004696D02*
X017361Y004696D01*
M02*
